<?xml version="1.0" standalone="no"?><svg xmlns="http://www.w3.org/2000/svg" viewBox="0 0 1440 320"><path fill="#C7D9B7" fill-opacity="1" d="M0,0L17.1,26.7C34.3,53,69,107,103,133.3C137.1,160,171,160,206,144C240,128,274,96,309,117.3C342.9,139,377,213,411,250.7C445.7,288,480,288,514,282.7C548.6,277,583,267,617,229.3C651.4,192,686,128,720,138.7C754.3,149,789,235,823,234.7C857.1,235,891,149,926,106.7C960,64,994,64,1029,80C1062.9,96,1097,128,1131,133.3C1165.7,139,1200,117,1234,117.3C1268.6,117,1303,139,1337,170.7C1371.4,203,1406,245,1423,266.7L1440,288L1440,0L1422.9,0C1405.7,0,1371,0,1337,0C1302.9,0,1269,0,1234,0C1200,0,1166,0,1131,0C1097.1,0,1063,0,1029,0C994.3,0,960,0,926,0C891.4,0,857,0,823,0C788.6,0,754,0,720,0C685.7,0,651,0,617,0C582.9,0,549,0,514,0C480,0,446,0,411,0C377.1,0,343,0,309,0C274.3,0,240,0,206,0C171.4,0,137,0,103,0C68.6,0,34,0,17,0L0,0Z"></path></svg>